<svg width="440" height="660" viewBox="0 0 440 660" fill="none" xmlns="http://www.w3.org/2000/svg">
  <rect width="440" height="660" fill="#1E1E1E" />
  <rect width="440" height="660" fill="white" />
  <path
    d="M291.875 261.25H148.125C145.639 261.25 143.254 262.238 141.496 263.996C139.738 265.754 138.75 268.139 138.75 270.625V389.375C138.75 391.861 139.738 394.246 141.496 396.004C143.254 397.762 145.639 398.75 148.125 398.75H291.875C294.361 398.75 296.746 397.762 298.504 396.004C300.262 394.246 301.25 391.861 301.25 389.375V270.625C301.25 268.139 300.262 265.754 298.504 263.996C296.746 262.238 294.361 261.25 291.875 261.25ZM282.5 345.625L252.536 312.937C251.969 312.31 251.28 311.806 250.511 311.454C249.742 311.103 248.91 310.913 248.065 310.894C247.22 310.876 246.38 311.03 245.597 311.348C244.813 311.665 244.103 312.139 243.509 312.741L210.088 346.162L243.926 380H226.25L196.294 350.044C195.122 348.872 193.532 348.214 191.875 348.214C190.218 348.214 188.628 348.872 187.456 350.044L157.5 380V280H282.5V345.625ZM170.625 308.125C170.625 305.158 171.505 302.258 173.153 299.791C174.801 297.325 177.144 295.402 179.885 294.267C182.626 293.131 185.642 292.834 188.551 293.413C191.461 293.992 194.134 295.421 196.232 297.518C198.329 299.616 199.758 302.289 200.337 305.199C200.916 308.108 200.619 311.124 199.483 313.865C198.348 316.606 196.425 318.949 193.959 320.597C191.492 322.245 188.592 323.125 185.625 323.125C181.647 323.125 177.832 321.545 175.018 318.732C172.205 315.918 170.625 312.103 170.625 308.125Z"
    fill="#B5B5B5" />
</svg>